HIERARCHY
ROOT Hips
{
 OFFSET 0.000000 0.000000 0.000000
 CHANNELS 6 Xposition Yposition Zposition Yrotation Xrotation Zrotation
 JOINT Chest
 {
  OFFSET 0.000000 9.581000 -0.001100
  CHANNELS 3 Yrotation Xrotation Zrotation
  JOINT Chest2
  {
   OFFSET 0.000000 9.561100 0.002200
   CHANNELS 3 Yrotation Xrotation Zrotation
   JOINT Chest3
   {
    OFFSET 0.000000 9.521100 0.000000
    CHANNELS 3 Yrotation Xrotation Zrotation
    JOINT Chest4
    {
     OFFSET 0.000000 9.511400 0.000000
     CHANNELS 3 Yrotation Xrotation Zrotation
     JOINT Neck
     {
      OFFSET 0.000000 14.375100 0.000000
      CHANNELS 3 Yrotation Xrotation Zrotation
      JOINT Head
      {
       OFFSET 0.000000 8.901200 0.004600
       CHANNELS 3 Yrotation Xrotation Zrotation
       End Site
       {
        OFFSET 0.000000 16.962200 0.002400
       }
      }
     }
     JOINT RightCollar
     {
      OFFSET -2.920100 9.518800 0.000000
      CHANNELS 3 Yrotation Xrotation Zrotation
      JOINT RightShoulder
      {
       OFFSET -13.664500 0.000000 0.000000
       CHANNELS 3 Yrotation Xrotation Zrotation
       JOINT RightElbow
       {
        OFFSET 0.000000 -29.999200 0.000000
        CHANNELS 3 Yrotation Xrotation Zrotation
        JOINT RightWrist
        {
         OFFSET 0.000000 -24.253600 0.000000
         CHANNELS 3 Yrotation Xrotation Zrotation
         End Site
         {
          OFFSET 0.000000 -17.918900 0.000000
         }
        }
       }
      }
     }
     JOINT LeftCollar
     {
      OFFSET 2.920100 9.518800 0.000000
      CHANNELS 3 Yrotation Xrotation Zrotation
      JOINT LeftShoulder
      {
       OFFSET 13.664500 0.000000 0.000000
       CHANNELS 3 Yrotation Xrotation Zrotation
       JOINT LeftElbow
       {
        OFFSET 0.000000 -29.999200 0.000000
        CHANNELS 3 Yrotation Xrotation Zrotation
        JOINT LeftWrist
        {
         OFFSET 0.000000 -24.253600 0.000000
         CHANNELS 3 Yrotation Xrotation Zrotation
         End Site
         {
          OFFSET 0.000000 -17.918900 0.000000
         }
        }
       }
      }
     }
    }
   }
  }
 }
 JOINT RightHip
 {
  OFFSET -7.797300 0.005300 0.000500
  CHANNELS 3 Yrotation Xrotation Zrotation
  JOINT RightKnee
  {
   OFFSET 0.000000 -40.663400 -0.000500
   CHANNELS 3 Yrotation Xrotation Zrotation
   JOINT RightAnkle
   {
    OFFSET 0.000000 -39.523700 -0.000900
    CHANNELS 3 Yrotation Xrotation Zrotation
    JOINT RightToe
    {
     OFFSET 0.000000 -6.418000 14.485300
     CHANNELS 3 Yrotation Xrotation Zrotation
     End Site
     {
      OFFSET 0.000000 -1.465200 6.326400
     }
    }
   }
  }
 }
 JOINT LeftHip
 {
  OFFSET 7.797300 0.005300 0.000500
  CHANNELS 3 Yrotation Xrotation Zrotation
  JOINT LeftKnee
  {
   OFFSET 0.000000 -40.663400 -0.000500
   CHANNELS 3 Yrotation Xrotation Zrotation
   JOINT LeftAnkle
   {
    OFFSET 0.000000 -39.523700 -0.000900
    CHANNELS 3 Yrotation Xrotation Zrotation
    JOINT LeftToe
    {
     OFFSET 0.000000 -6.418000 14.485300
     CHANNELS 3 Yrotation Xrotation Zrotation
     End Site
     {
      OFFSET 0.000000 -1.465200 6.326400
     }
    }
   }
  }
 }
}
MOTION
Frames: 8
Frame Time: 0.008333
0.000000 86.422400 0.000000 0.000000 -5.767877 0.000000 0.000000 11.653817 0.000000 0.000000 -5.885947 0.000000 0.000000 -0.000000 0.000000 0.000000 -0.000000 0.000000 0.000000 12.528835 0.000000 0.000000 0.711642 0.000000 0.000000 -0.000000 0.000000 0.000000 0.000000 -90.000000 0.000000 -2.309062 0.000000 0.000000 2.309062 0.000000 0.000000 -0.000000 0.000000 0.000000 -0.000000 90.000000 0.000000 -2.309062 0.000000 0.000000 2.309062 0.000000 0.000000 8.520406 0.000000 0.000000 1.905762 0.000000 -0.000000 -4.658285 0.000000 0.000000 -0.000000 0.000000 0.000000 8.520406 0.000000 0.000000 1.905762 0.000000 -0.000000 -4.658285 0.000000 0.000000 -0.000000 0.000000
-15.326352 126.906840 20.129941 -172.057192 -48.224951 -3.412765 -2.398201 26.046139 0.239258 -0.374922 4.305947 0.109191 -0.647763 6.876404 0.175212 -1.925615 21.397738 0.273362 -1.380815 16.420132 -9.989054 0.814301 -8.056269 -10.690584 6.624904 -0.349250 2.910898 8.527064 -26.078336 -7.954089 -84.337862 -41.239629 149.576577 -5.194974 5.745697 14.164262 -12.488377 -2.817956 -2.447216 -16.976997 -27.157722 12.327535 29.673594 -37.641525 -84.684929 2.295172 -5.760296 -8.261424 -4.535424 -23.989156 -1.026697 -4.044631 77.735599 -2.265053 10.614268 -11.010075 1.364997 0.000472 -0.000904 0.000209 7.529592 3.649067 3.407042 130.159268 65.533038 151.282544 3.203410 14.320279 6.284732 0.000484 0.002666 0.000214
-15.326636 126.907159 20.130622 -172.057224 -48.233448 -3.410041 -2.377544 26.045161 0.238701 -0.378099 4.310966 0.115486 -0.618224 6.868536 0.168234 -1.928809 21.404059 0.280271 -1.332330 16.375311 -9.867166 0.846911 -8.120724 -10.569092 6.546342 -0.284317 2.896922 8.132833 -26.093168 -7.870601 -84.517996 -41.263103 149.633168 -5.122336 5.949989 14.505985 -12.513133 -2.801836 -2.429565 -16.597715 -27.067193 12.157638 30.044393 -37.981745 -84.741450 2.345158 -5.797491 -8.102791 -4.534247 -23.982282 -1.033294 -4.036207 77.736712 -2.255571 10.609319 -11.007799 1.373507 0.000485 -0.001508 0.000215 7.530132 3.656076 3.404050 130.162597 65.534916 151.285093 3.207433 14.321507 6.297012 0.002456 0.000774 0.001088
-15.327040 126.907223 20.131701 -172.052779 -48.240873 -3.409996 -2.359665 26.045625 0.249661 -0.389744 4.317521 0.114671 -0.617563 6.871616 0.168986 -1.933210 21.401209 0.275334 -1.265932 16.324546 -9.755934 0.886366 -8.191941 -10.458086 6.511003 -0.245705 2.876464 7.707173 -26.075674 -7.802155 -84.657477 -41.266150 149.658667 -5.074408 6.157408 14.876980 -12.499800 -2.782974 -2.422901 -16.222078 -26.981695 11.983018 30.445592 -38.326358 -84.799825 2.427278 -5.895991 -7.912358 -4.535207 -23.976368 -1.041364 -4.033306 77.736985 -2.255050 10.621174 -11.003612 1.379241 0.001537 -0.001247 0.000681 7.527912 3.661734 3.400252 130.163776 65.534119 151.285899 3.209081 14.323529 6.298853 0.002882 0.000845 0.001277
-15.327303 126.906461 20.133651 -172.049136 -48.242591 -3.410119 -2.360844 26.046100 0.251132 -0.390031 4.319028 0.115366 -0.620163 6.869183 0.174811 -1.922165 21.414297 0.274269 -1.212776 16.255698 -9.645102 0.932942 -8.261979 -10.357079 6.472024 -0.225541 2.850376 7.261080 -26.039839 -7.740064 -84.754663 -41.247933 149.648621 -5.061010 6.357937 15.263719 -12.488257 -2.769838 -2.421224 -15.845914 -26.894641 11.807504 30.873598 -38.666214 -84.862907 2.547153 -6.062064 -7.694109 -4.535730 -23.977168 -1.050917 -4.009465 77.738438 -2.230503 10.629071 -10.998456 1.381726 0.001933 -0.000967 0.000856 7.528138 3.658466 3.394200 130.161631 65.528048 151.285450 3.209683 14.326320 6.300667 0.001895 0.000415 0.000840
-15.327039 126.906220 20.135238 -172.046259 -48.249181 -3.413881 -2.361894 26.052316 0.253400 -0.390169 4.319446 0.115637 -0.624818 6.860476 0.184865 -1.922479 21.427985 0.272563 -1.149725 16.184878 -9.534151 0.989178 -8.329306 -10.266513 6.425199 -0.177308 2.796170 6.812221 -26.014550 -7.657313 -84.809163 -41.209501 149.605186 -5.075835 6.545947 15.633727 -12.423603 -2.700022 -2.404591 -15.497344 -26.854778 11.616583 31.332966 -38.992046 -84.939592 2.703540 -6.291176 -7.461795 -4.533929 -23.970368 -1.055021 -3.987567 77.735159 -2.204326 10.624843 -10.993932 1.382801 0.001698 -0.000941 0.000752 7.528200 3.661885 3.394769 130.157781 65.522038 151.279188 3.212796 14.329638 6.302257 -0.000658 0.002318 -0.000291
-15.326978 126.907110 20.135980 -172.038094 -48.265403 -3.421739 -2.372621 26.055670 0.265975 -0.392576 4.317229 0.117175 -0.621753 6.871042 0.172835 -1.958086 21.407444 0.321241 -1.068143 16.142537 -9.480965 1.052122 -8.399795 -10.179794 6.387171 -0.061430 2.661734 6.360715 -26.009353 -7.545424 -84.815104 -41.152504 149.522478 -5.085449 6.720738 15.968493 -12.325410 -2.611245 -2.438020 -15.127501 -26.811388 11.408634 31.826068 -39.301697 -85.039590 2.900827 -6.576689 -7.240967 -4.532247 -23.951923 -1.063642 -3.957477 77.732760 -2.165455 10.623568 -10.991043 1.380727 0.001819 -0.001381 0.000806 7.524554 3.675731 3.396081 130.156619 65.517527 151.279472 3.211225 14.332887 6.297967 0.000003 0.002682 0.000001
-15.326919 126.907321 20.137492 -172.034976 -48.277312 -3.425440 -2.396019 26.060342 0.268155 -0.401033 4.307571 0.128846 -0.622635 6.885008 0.164531 -1.948505 21.407640 0.311062 -0.989813 16.075117 -9.373245 1.118997 -8.472540 -10.092383 6.320751 0.039572 2.563240 5.891328 -26.007157 -7.414715 -84.781670 -41.070809 149.405789 -5.049011 6.879115 16.271257 -12.255453 -2.529031 -2.401722 -14.726501 -26.767950 11.179381 32.343722 -39.595942 -85.169101 3.139126 -6.918355 -7.050541 -4.525877 -23.939062 -1.063900 -3.959607 77.730988 -2.160137 10.594343 -10.988434 1.382345 0.000488 -0.001001 0.000216 7.523656 3.686303 3.397049 130.157033 65.516948 151.278726 3.209158 14.336186 6.306872 -0.000532 0.001815 -0.000236
